<?xml version="1.0" encoding="UTF-8"?>
<svg xmlns="http://www.w3.org/2000/svg" xmlns:xlink="http://www.w3.org/1999/xlink" width="30px" height="30px" viewBox="0 0 30 30" version="1.1">
<g id="surface1">
<path style=" stroke:none;fill-rule:nonzero;fill:rgb(0%,0%,0%);fill-opacity:1;" d="M 15 2.5 C 8.097656 2.5 2.5 8.097656 2.5 15 C 2.5 21.902344 8.097656 27.5 15 27.5 C 21.902344 27.5 27.5 21.902344 27.5 15 C 27.492188 8.097656 21.902344 2.507812 15 2.5 Z M 15 25 C 9.476562 25 5 20.523438 5 15 C 5 9.476562 9.476562 5 15 5 C 20.523438 5 25 9.476562 25 15 C 24.992188 20.519531 20.519531 24.992188 15 25 Z M 15 25 "/>
<path style=" stroke:none;fill-rule:nonzero;fill:rgb(0%,0%,0%);fill-opacity:1;" d="M 9.117188 16.617188 L 10.882812 18.382812 L 15 14.265625 L 19.117188 18.382812 L 20.882812 16.617188 L 15 10.734375 Z M 9.117188 16.617188 "/>
</g>
</svg>
